<svg xmlns="http://www.w3.org/2000/svg" width="16" height="16" viewBox="0 0 16 16" fill="none">
<path d="M6.9643 6.19024L9.79335 9.01929L10.8177 5.1659L6.9643 6.19024Z" fill="#111827"/>
<path d="M6.18393 6.97061L9.01298 9.79967L5.15959 10.824L6.18393 6.97061Z" fill="#111827"/>
<path d="M14.9901 7.99496C14.9901 4.12811 11.8554 0.993412 7.98855 0.993412C4.1217 0.993412 0.987003 4.12811 0.987003 7.99496C0.987003 11.8618 4.1217 14.9965 7.98855 14.9965C11.8554 14.9965 14.9901 11.8618 14.9901 7.99496ZM13.3897 7.99496C13.3897 10.978 10.9715 13.3961 7.98855 13.3961C5.00555 13.3961 2.58736 10.978 2.58736 7.99496C2.58736 5.01196 5.00555 2.59377 7.98855 2.59377C10.9715 2.59377 13.3897 5.01196 13.3897 7.99496Z" fill="#111827"/>
</svg>